# xmcd
#
# Track frame offsets: 
#        150
#        5454
#        28681
#        49184
#        63579
#        88065
#        114781
#
# Disc length: 1790 seconds
#
# Revision: 0
# Processed by: cddbd v1.5.2PL0 Copyright (c) Steve Scherf et al.
# Submitted via: ExactAudioCopy v1.3
#
DISCID=5106fc07
DTITLE=原田真二 - Shinji Harada 1992-1996 Columbia Years Complete  - Miracl
DTITLE=e Love [03 - Glistening Holidays]
DYEAR=2017
DGENRE=JPop
TTITLE0=Silent Night
TTITLE1=Honey Christmas
TTITLE2=Ride to the Sun
TTITLE3=Baby
TTITLE4=Lonely Christmas
TTITLE5=One
TTITLE6=Silent Night (A CAPPELLA)
EXTD=
EXTT0=
EXTT1=
EXTT2=
EXTT3=
EXTT4=
EXTT5=
EXTT6=
PLAYORDER=
